<svg width="19" height="22" viewBox="0 0 19 22" fill="none" xmlns="http://www.w3.org/2000/svg">
<path d="M18.3214 1.35715H13.2321L12.8335 0.56407C12.749 0.394518 12.6189 0.251894 12.4579 0.152244C12.2968 0.0525943 12.1111 -0.000128418 11.9217 7.43575e-06H7.07411C6.88512 -0.000719083 6.69974 0.051807 6.53923 0.151568C6.37871 0.251329 6.24954 0.394289 6.16652 0.56407L5.76786 1.35715H0.678571C0.498603 1.35715 0.326006 1.42864 0.198749 1.5559C0.0714922 1.68316 0 1.85575 0 2.03572L0 3.39286C0 3.57283 0.0714922 3.74543 0.198749 3.87269C0.326006 3.99994 0.498603 4.07144 0.678571 4.07144H18.3214C18.5014 4.07144 18.674 3.99994 18.8013 3.87269C18.9285 3.74543 19 3.57283 19 3.39286V2.03572C19 1.85575 18.9285 1.68316 18.8013 1.5559C18.674 1.42864 18.5014 1.35715 18.3214 1.35715ZM2.25625 19.8058C2.28861 20.3226 2.51672 20.8077 2.89413 21.1623C3.27154 21.5168 3.76989 21.7142 4.28772 21.7143H14.7123C15.2301 21.7142 15.7285 21.5168 16.1059 21.1623C16.4833 20.8077 16.7114 20.3226 16.7437 19.8058L17.6429 5.42858H1.35714L2.25625 19.8058Z" fill="white"/>
</svg>
