<svg width="13" height="18" viewBox="0 0 13 18" fill="none" xmlns="http://www.w3.org/2000/svg">
<path d="M12.5357 1.07143H9.05357L8.7808 0.445318C8.72302 0.311461 8.63402 0.198864 8.5238 0.120193C8.41358 0.0415218 8.28652 -0.000101383 8.15692 5.87033e-06H4.84018C4.71087 -0.000567697 4.58403 0.0409003 4.47421 0.119659C4.36438 0.198417 4.276 0.311281 4.2192 0.445318L3.94643 1.07143H0.464286C0.341149 1.07143 0.223057 1.12788 0.135986 1.22834C0.0489157 1.32881 0 1.46507 0 1.60715L0 2.67858C0 2.82066 0.0489157 2.95692 0.135986 3.05738C0.223057 3.15785 0.341149 3.21429 0.464286 3.21429H12.5357C12.6588 3.21429 12.7769 3.15785 12.864 3.05738C12.9511 2.95692 13 2.82066 13 2.67858V1.60715C13 1.46507 12.9511 1.32881 12.864 1.22834C12.7769 1.12788 12.6588 1.07143 12.5357 1.07143ZM1.54375 15.6362C1.56589 16.0442 1.72197 16.4271 1.98019 16.707C2.23842 16.987 2.5794 17.1428 2.93371 17.1429H10.0663C10.4206 17.1428 10.7616 16.987 11.0198 16.707C11.278 16.4271 11.4341 16.0442 11.4562 15.6362L12.0714 4.28572H0.928571L1.54375 15.6362Z" fill="#B7B7B7"/>
</svg>
