<svg width="25" height="25" viewBox="0 0 25 25" fill="none" xmlns="http://www.w3.org/2000/svg">
<path d="M12.5 23.1329C12.7886 23.1329 13.0551 23.0996 13.3548 23.0774L13.9987 24.2985C14.1208 24.5428 14.365 24.676 14.6648 24.6316C14.9423 24.5761 15.1421 24.3763 15.1754 24.0765L15.3753 22.7333C15.9192 22.5889 16.4632 22.378 16.996 22.1449L17.9951 23.0441C18.2061 23.2439 18.4725 23.2883 18.75 23.1329C18.9943 22.9997 19.0942 22.7333 19.0386 22.4446L18.7611 21.1125C19.2163 20.7905 19.6714 20.4242 20.0822 20.0135L21.3255 20.5352C21.6031 20.6462 21.8584 20.5907 22.0694 20.3354C22.2581 20.1356 22.2801 19.8469 22.1249 19.6027L21.4033 18.4482C21.7363 17.982 22.0028 17.4823 22.2581 16.9495L23.6124 17.0161C23.901 17.0272 24.1452 16.8718 24.2452 16.5943C24.3339 16.3167 24.2452 16.0503 24.0119 15.8727L22.9575 15.029C23.1018 14.4961 23.2128 13.9189 23.2571 13.3194L24.5448 12.9198C24.8224 12.8198 25 12.6089 25 12.3092C25 12.0206 24.8224 11.8096 24.5448 11.7097L23.2571 11.2989C23.2128 10.6995 23.1018 10.1445 22.9575 9.60046L24.0119 8.74571C24.2452 8.57917 24.3339 8.32383 24.2452 8.04631C24.1452 7.76875 23.901 7.61335 23.6124 7.62443L22.2581 7.67999C22.0028 7.14708 21.7363 6.64757 21.4033 6.1813L22.1249 5.02677C22.2801 4.79364 22.2581 4.50499 22.0694 4.30516C21.8584 4.04986 21.6031 3.98322 21.3255 4.10537L20.0822 4.60494C19.6714 4.21635 19.2163 3.8389 18.7611 3.517L19.0386 2.19593C19.0942 1.89621 18.9943 1.62978 18.75 1.49654C18.4725 1.35222 18.2061 1.37443 17.9951 1.59648L16.996 2.4735C16.4632 2.24036 15.9192 2.05161 15.3753 1.89621L15.1754 0.552972C15.1421 0.264328 14.9423 0.0534098 14.6648 0.00898111C14.365 -0.0354002 14.1208 0.0867076 13.9987 0.330923L13.3548 1.5521C13.0551 1.52988 12.7886 1.50767 12.5 1.50767C12.2003 1.50767 11.9338 1.52988 11.623 1.5521L10.9903 0.330923C10.8681 0.0867076 10.6239 -0.0354002 10.3131 0.00898111C10.0355 0.0534098 9.84683 0.264328 9.8024 0.552972L9.6137 1.88512C9.05862 2.05161 8.51468 2.24036 7.9929 2.4735L6.99383 1.59648C6.77178 1.37443 6.50535 1.35222 6.23892 1.49654C5.9947 1.62978 5.89476 1.89621 5.95027 2.19593L6.22779 3.517C5.76157 3.8389 5.30644 4.21635 4.89564 4.60494L3.66343 4.10537C3.38586 3.98322 3.11943 4.04986 2.90852 4.30516C2.73094 4.50499 2.70873 4.79364 2.85305 5.01564L3.5857 6.1813C3.25267 6.64757 2.98624 7.14708 2.73094 7.67999L1.36545 7.62443C1.07685 7.61335 0.832588 7.76875 0.743778 8.04631C0.654968 8.32383 0.732695 8.57917 0.965827 8.74571L2.03155 9.60046C1.88722 10.1445 1.76512 10.6995 1.73182 11.2989L0.44405 11.7097C0.155406 11.7985 0 12.0094 0 12.3092C0 12.6089 0.155406 12.8198 0.44405 12.9198L1.73182 13.3305C1.76512 13.9189 1.88722 14.4961 2.03155 15.029L0.965827 15.8727C0.732695 16.0503 0.654968 16.3167 0.743778 16.5943C0.832588 16.8718 1.07685 17.0272 1.36545 17.0161L2.73094 16.9495C2.98624 17.4823 3.25267 17.982 3.57462 18.4482L2.86414 19.6027C2.6976 19.8469 2.71981 20.1356 2.90852 20.3354C3.11943 20.5907 3.38586 20.6462 3.66343 20.5352L4.89564 20.0135C5.30644 20.4242 5.76157 20.7905 6.22779 21.1125L5.95027 22.4446C5.89476 22.7333 5.9947 22.9997 6.23892 23.1329C6.51643 23.2883 6.78286 23.2439 6.99383 23.0441L7.98182 22.1449C8.51468 22.378 9.05862 22.5889 9.6137 22.7333L9.8024 24.0765C9.84683 24.3763 10.0355 24.5761 10.3131 24.6316C10.6239 24.676 10.8681 24.5428 10.9903 24.2985L11.623 23.0774C11.9228 23.0996 12.2003 23.1329 12.5 23.1329ZM15.2865 11.6098C14.7647 10.2111 13.7434 9.44506 12.4667 9.44506C12.278 9.44506 12.056 9.46727 11.7008 9.54495L8.51468 4.10537C9.70251 3.517 11.0568 3.19506 12.5 3.19506C17.3402 3.19506 21.1368 6.86957 21.481 11.6098H15.2865ZM3.48581 12.3203C3.48581 9.23414 4.94006 6.51433 7.23804 4.87137L10.4463 10.3442C9.84683 10.9659 9.56932 11.6431 9.56932 12.3647C9.56932 13.0641 9.83575 13.7079 10.4463 14.3518L7.16032 19.7248C4.91785 18.0707 3.48581 15.3842 3.48581 12.3203ZM11.1346 12.3536C11.1346 11.5987 11.7784 11.0103 12.4889 11.0103C13.2438 11.0103 13.8655 11.5987 13.8655 12.3536C13.8655 13.0974 13.2438 13.7079 12.4889 13.7079C11.7784 13.7079 11.1346 13.0974 11.1346 12.3536ZM12.5 21.4455C11.0236 21.4455 9.647 21.1014 8.43695 20.5019L11.7008 15.1622C12.0449 15.251 12.278 15.2732 12.4667 15.2732C13.7545 15.2732 14.7758 14.485 15.2865 13.053H21.481C21.1257 17.771 17.329 21.4455 12.5 21.4455Z" fill="white"/>
</svg>
